<svg id="Capa_1" enable-background="new 0 0 512 512" height="512" viewBox="0 0 512 512" width="512" xmlns="http://www.w3.org/2000/svg" xmlns:xlink="http://www.w3.org/1999/xlink"><linearGradient id="SVGID_1_" gradientUnits="userSpaceOnUse" x1="256" x2="256" y1="482" y2="0"><stop offset="0" stop-color="#addcff"/><stop offset=".5028" stop-color="#eaf6ff"/><stop offset="1" stop-color="#eaf6ff"/></linearGradient><linearGradient id="SVGID_2_" gradientUnits="userSpaceOnUse" x1="256" x2="256" y1="512" y2="120"><stop offset="0" stop-color="#5558ff"/><stop offset="1" stop-color="#00c0ff"/></linearGradient><g><g><g><path d="m256 150h-105v332h210v-332zm75-135c0-8.291-6.709-15-15-15s-15 6.709-15 15c0 62.514-42.635 95.42-45 98.789-3.237-4.611-45-34.824-45-98.789 0-8.291-6.709-15-15-15s-15 6.709-15 15c0 82.145 57.573 121.293 64.395 130.605 2.93 2.93 6.768 4.395 10.605 4.395s7.676-1.465 10.605-4.395c6.906-9.426 64.395-48.548 64.395-130.605z" fill="url(#SVGID_1_)"/></g></g><g><g><path d="m346 120h-180c-24.901 0-45 20.099-45 45v302c0 24.901 20.099 45 45 45h180c24.901 0 45-20.099 45-45v-302c0-24.901-20.099-45-45-45zm-30 332h-120c-8.401 0-15-6.599-15-15s6.599-15 15-15h120c8.401 0 15 6.599 15 15s-6.599 15-15 15zm0-60h-120c-8.401 0-15-6.599-15-15s6.599-15 15-15h120c8.401 0 15 6.599 15 15s-6.599 15-15 15zm15-75c0 8.401-6.599 15-15 15h-120c-8.401 0-15-6.599-15-15v-122c0-8.401 6.599-15 15-15h120c8.401 0 15 6.599 15 15z" fill="url(#SVGID_2_)"/></g></g></g></svg>